<svg width="204" height="99" viewBox="0 0 204 99" fill="none" xmlns="http://www.w3.org/2000/svg">
<path d="M28.668 65.19C34.97 65.19 40.096 70.318 40.096 76.619C40.096 82.921 34.97 88.047 28.668 88.047C22.367 88.047 17.24 82.921 17.24 76.619C17.24 70.318 22.367 65.19 28.668 65.19Z" fill="#333333"/>
<path d="M6.69301 76.619C6.69301 88.755 16.531 98.594 28.668 98.594C40.804 98.594 50.642 88.755 50.642 76.619C50.642 64.483 40.804 54.644 28.668 54.644C16.532 54.644 6.69301 64.483 6.69301 76.619ZM12.355 76.619C12.355 67.624 19.673 60.306 28.668 60.306C37.663 60.306 44.981 67.624 44.981 76.619C44.981 85.614 37.664 92.932 28.668 92.932C19.672 92.932 12.355 85.614 12.355 76.619Z" fill="#333333"/>
<path d="M168.183 65.19C174.484 65.19 179.611 70.318 179.611 76.619C179.611 82.921 174.484 88.047 168.183 88.047C161.882 88.047 156.755 82.921 156.755 76.619C156.754 70.318 161.881 65.19 168.183 65.19Z" fill="#333333"/>
<path d="M146.208 76.619C146.208 88.755 156.046 98.594 168.183 98.594C180.319 98.594 190.157 88.755 190.157 76.619C190.157 64.483 180.319 54.644 168.183 54.644C156.046 54.644 146.208 64.483 146.208 76.619ZM151.87 76.619C151.87 67.624 159.188 60.306 168.183 60.306C177.178 60.306 184.495 67.624 184.495 76.619C184.495 85.614 177.178 92.932 168.183 92.932C159.188 92.932 151.87 85.614 151.87 76.619Z" fill="#333333"/>
<path d="M0.173004 51.881V79.283H4.131C4.131 79.283 0.173004 51.881 28.667 51.881C57.161 51.881 54.369 79.283 54.369 79.283H143.276C143.276 79.283 140.231 51.576 168.182 51.576C196.133 51.576 192.905 79.283 192.905 79.283H201.126C212.392 47.923 177.682 34.22 167.33 33.003C156.978 31.785 119.528 5.29603 104.304 2.55603C89.08 -0.183969 47.976 -1.70699 28.668 4.99201C9.36 11.69 8.395 46.096 8.395 46.096L0.173004 51.881ZM171.929 38.365C171.929 38.365 182.605 40.104 190.156 47.38C190.157 47.38 171.613 53.231 171.929 38.365ZM87.476 8.33197C92.146 8.63397 96.439 9.01097 100.022 9.42297C120.633 11.795 147.891 35.519 147.891 35.519H87.477V8.33197H87.476ZM41.928 9.12799C52.885 7.44699 68.311 7.37598 81.782 8.01398V35.519H41.928V9.12799ZM18.205 35.519C18.205 35.519 21.368 22.234 28.485 14.01C29.969 12.295 33.053 10.995 37.184 10.029V35.518L18.205 35.519Z" fill="#333333"/>
</svg>
