<?xml version="1.0" encoding="UTF-8"?>
<!DOCTYPE svg PUBLIC "-//W3C//DTD SVG 1.1//EN" "http://www.w3.org/Graphics/SVG/1.1/DTD/svg11.dtd">
<svg xmlns="http://www.w3.org/2000/svg" version="1.1" width="376px" height="153px" style="shape-rendering:geometricPrecision; text-rendering:geometricPrecision; image-rendering:optimizeQuality; fill-rule:evenodd; clip-rule:evenodd" xmlns:xlink="http://www.w3.org/1999/xlink">
<g><path style="opacity:0.889" fill="#f2f9ee" d="M 90.5,-0.5 C 99.1667,-0.5 107.833,-0.5 116.5,-0.5C 138.755,0.620089 158.421,8.45342 175.5,23C 158.868,24.2849 142.201,25.2849 125.5,26C 130.681,27.2824 135.681,28.9491 140.5,31C 131.024,29.7742 121.524,28.2742 112,26.5C 108.845,27.2781 105.678,27.4448 102.5,27C 96.617,20.6145 90.2836,14.7811 83.5,9.5C 89.6694,7.49961 96.0027,6.33294 102.5,6C 109.833,5.66667 117.167,5.33333 124.5,5C 104.624,3.49572 84.9578,4.82905 65.5,9C 73.3781,8.22499 80.3781,10.225 86.5,15C 91.3892,19.3862 95.7225,24.2196 99.5,29.5C 97.6675,30.2485 96.0009,31.2485 94.5,32.5C 91.027,30.8603 88.3603,28.3603 86.5,25C 82.4672,23.9596 78.8005,24.6263 75.5,27C 78.3136,29.4964 81.6469,30.8298 85.5,31C 69.5303,31.1883 53.5303,31.1883 37.5,31C 36.3977,28.5991 36.231,26.0991 37,23.5C 43.1373,18.5125 49.9706,14.6791 57.5,12C 57,11.8333 56.5,11.6667 56,11.5C 42.3742,18.0615 28.5409,24.2281 14.5,30C 17.0444,31.092 19.7111,31.7586 22.5,32C 18.877,33.1053 15.2103,34.1053 11.5,35C 8.66667,37.1667 5.83333,39.3333 3,41.5C 2.66667,47.1667 2.33333,52.8333 2,58.5C 0.889593,53.8277 0.0562601,49.161 -0.5,44.5C -0.5,43.1667 -0.5,41.8333 -0.5,40.5C 4.60509,36.9222 8.27176,32.4222 10.5,27C 12.8782,26.4888 15.2115,25.8221 17.5,25C 26.8333,20 36.1667,15 45.5,10C 60.1508,4.41844 75.1508,0.918444 90.5,-0.5 Z"/></g>
<g><path style="opacity:0.875" fill="#f2f9ee" d="M 190.5,22.5 C 205.035,23.3827 218.702,27.2161 231.5,34C 235.585,38.0782 237.585,43.0782 237.5,49C 237.375,50.6268 236.875,52.1268 236,53.5C 230.282,54.8237 224.449,55.657 218.5,56C 199.091,57.0992 179.758,56.4325 160.5,54C 155.431,51.1038 151.098,47.2705 147.5,42.5C 165.49,41.9754 183.49,42.3087 201.5,43.5C 212.163,42.9277 222.83,42.4277 233.5,42C 230.688,37.2581 226.688,33.9248 221.5,32C 210.965,28.6299 200.632,25.4632 190.5,22.5 Z"/></g>
<g><path style="opacity:0.702" fill="#f2f9ee" d="M 115.5,37.5 C 122.489,37.0778 127.989,39.7445 132,45.5C 135.156,50.1128 136.822,55.1128 137,60.5C 133.455,52.5692 127.955,46.4025 120.5,42C 113.69,41.9898 108.19,44.8231 104,50.5C 103.48,48.7111 103.813,47.0444 105,45.5C 107.855,41.7893 111.355,39.1226 115.5,37.5 Z"/></g>
<g><path style="opacity:0.695" fill="#f2f9ee" d="M 10.5,44.5 C 18.9389,43.9184 23.9389,47.9184 25.5,56.5C 24.9984,57.521 24.3317,57.6877 23.5,57C 20.9667,51.7489 16.9667,49.0822 11.5,49C 9.66667,50.8333 7.83333,52.6667 6,54.5C 5.33333,53.1667 5.33333,51.8333 6,50.5C 7.33203,48.34 8.83203,46.34 10.5,44.5 Z"/></g>
<g><path style="opacity:0.909" fill="#f2f9ee" d="M 290.5,61.5 C 299.337,60.4729 307.671,61.9729 315.5,66C 318.961,68.0746 320.294,70.9079 319.5,74.5C 316.833,75.8333 314.167,77.1667 311.5,78.5C 305.214,71.9288 297.881,70.4288 289.5,74C 285.271,77.8432 285.605,81.1765 290.5,84C 297.167,85.3333 303.833,86.6667 310.5,88C 322.359,93.5703 325.526,102.404 320,114.5C 316.456,119.522 311.623,122.356 305.5,123C 295.45,124.869 286.117,123.202 277.5,118C 275.108,115.272 273.108,112.272 271.5,109C 274.673,106.913 278.006,105.079 281.5,103.5C 286.95,111.877 294.616,114.71 304.5,112C 311.532,108.521 312.199,104.187 306.5,99C 299.188,97.2411 291.855,95.5745 284.5,94C 274.383,88.3079 271.883,80.1412 277,69.5C 280.897,65.6414 285.397,62.9747 290.5,61.5 Z"/></g>
<g><path style="opacity:0.916" fill="#f2f9ee" d="M 375.5,72.5 C 375.5,73.1667 375.5,73.8333 375.5,74.5C 372.404,75.5467 369.404,76.88 366.5,78.5C 359.817,71.744 352.15,70.244 343.5,74C 339.471,78.0563 340.137,81.3896 345.5,84C 352.93,85.2384 360.263,86.9051 367.5,89C 370.828,90.4785 373.494,92.6452 375.5,95.5C 375.5,101.833 375.5,108.167 375.5,114.5C 366.472,122.926 355.805,125.759 343.5,123C 335.315,121.646 329.648,117.146 326.5,109.5C 329.377,107.139 332.544,105.139 336,103.5C 341.36,111.625 348.86,114.458 358.5,112C 366.169,109 367.169,104.667 361.5,99C 354.188,97.2411 346.855,95.5745 339.5,94C 329.611,88.9089 326.777,81.0756 331,70.5C 339.077,62.0343 348.911,59.201 360.5,62C 367.087,63.4478 372.087,66.9478 375.5,72.5 Z"/></g>
<g><path style="opacity:0.921" fill="#f2f9ee" d="M -0.5,63.5 C 14.5,63.5 29.5,63.5 44.5,63.5C 44.5,67.1667 44.5,70.8333 44.5,74.5C 33.5,74.5 22.5,74.5 11.5,74.5C 11.5,78.8333 11.5,83.1667 11.5,87.5C 22.1667,87.5 32.8333,87.5 43.5,87.5C 43.5,91.1667 43.5,94.8333 43.5,98.5C 32.8333,98.5 22.1667,98.5 11.5,98.5C 11.5,102.5 11.5,106.5 11.5,110.5C 22.5,110.5 33.5,110.5 44.5,110.5C 44.5,114.5 44.5,118.5 44.5,122.5C 29.5,122.5 14.5,122.5 -0.5,122.5C -0.5,102.833 -0.5,83.1667 -0.5,63.5 Z"/></g>
<g><path style="opacity:0.903" fill="#f2f9ee" d="M 49.5,64.5 C 53.9811,63.3516 58.6478,63.1849 63.5,64C 68.1243,70.7477 72.6243,77.581 77,84.5C 81.3757,77.581 85.8757,70.7477 90.5,64C 94.8206,63.501 99.1539,63.3343 103.5,63.5C 98.0717,73.4994 91.7384,82.9994 84.5,92C 91.2904,101.747 97.9571,111.58 104.5,121.5C 100.205,122.661 95.8713,122.828 91.5,122C 86.6667,115.167 81.8333,108.333 77,101.5C 72.1667,108.333 67.3333,115.167 62.5,122C 58.1287,122.828 53.7953,122.661 49.5,121.5C 56.0962,111.965 62.4296,102.299 68.5,92.5C 62.6523,82.794 56.3189,73.4606 49.5,64.5 Z"/></g>
<g><path style="opacity:0.955" fill="#f2f9ee" d="M 110.5,63.5 C 121.838,63.3335 133.172,63.5001 144.5,64C 156.431,68.3533 161.264,76.8533 159,89.5C 156.76,98.7061 150.927,103.873 141.5,105C 134.842,105.5 128.175,105.666 121.5,105.5C 121.5,111.167 121.5,116.833 121.5,122.5C 117.833,122.5 114.167,122.5 110.5,122.5C 110.5,102.833 110.5,83.1667 110.5,63.5 Z M 121.5,74.5 C 127.842,74.3338 134.175,74.5005 140.5,75C 146.795,77.4252 148.962,81.9252 147,88.5C 146.052,90.5701 144.552,92.0701 142.5,93C 135.589,94.3844 128.589,94.8844 121.5,94.5C 121.5,87.8333 121.5,81.1667 121.5,74.5 Z"/></g>
<g><path style="opacity:0.942" fill="#f2f9ee" d="M 166.5,63.5 C 177.838,63.3335 189.172,63.5001 200.5,64C 213.91,68.6538 218.41,77.8204 214,91.5C 211.569,96.9786 207.403,100.479 201.5,102C 207.353,108.352 213.02,114.852 218.5,121.5C 213.869,122.662 209.202,122.828 204.5,122C 198.833,115.667 193.167,109.333 187.5,103C 184.183,102.502 180.85,102.335 177.5,102.5C 177.5,109.167 177.5,115.833 177.5,122.5C 173.833,122.5 170.167,122.5 166.5,122.5C 166.5,102.833 166.5,83.1667 166.5,63.5 Z M 177.5,74.5 C 184.175,74.3337 190.842,74.5004 197.5,75C 203.368,78.0402 204.868,82.5402 202,88.5C 201.097,89.7014 199.931,90.5348 198.5,91C 191.508,91.4996 184.508,91.6663 177.5,91.5C 177.5,85.8333 177.5,80.1667 177.5,74.5 Z"/></g>
<g><path style="opacity:0.933" fill="#f2f9ee" d="M 221.5,63.5 C 236.5,63.5 251.5,63.5 266.5,63.5C 266.5,67.1667 266.5,70.8333 266.5,74.5C 255.5,74.5 244.5,74.5 233.5,74.5C 233.5,78.8333 233.5,83.1667 233.5,87.5C 243.833,87.5 254.167,87.5 264.5,87.5C 264.5,91.1667 264.5,94.8333 264.5,98.5C 254.167,98.5 243.833,98.5 233.5,98.5C 233.5,102.5 233.5,106.5 233.5,110.5C 244.5,110.5 255.5,110.5 266.5,110.5C 266.5,114.5 266.5,118.5 266.5,122.5C 251.5,122.5 236.5,122.5 221.5,122.5C 221.5,102.833 221.5,83.1667 221.5,63.5 Z"/></g>
<g><path style="opacity:0.856" fill="#f2f9ee" d="M 129.5,152.5 C 127.167,152.5 124.833,152.5 122.5,152.5C 121.388,149.054 119.055,147.054 115.5,146.5C 115.5,148.5 115.5,150.5 115.5,152.5C 113.833,152.5 112.167,152.5 110.5,152.5C 110.5,145.5 110.5,138.5 110.5,131.5C 115.179,131.334 119.845,131.501 124.5,132C 125.931,132.465 127.097,133.299 128,134.5C 129.444,139.256 128.277,143.089 124.5,146C 126.539,147.926 128.206,150.093 129.5,152.5 Z M 115.5,135.5 C 119.07,134.893 121.737,136.06 123.5,139C 123.355,139.772 123.022,140.439 122.5,141C 120.19,141.497 117.857,141.663 115.5,141.5C 115.5,139.5 115.5,137.5 115.5,135.5 Z"/></g>
<g><path style="opacity:0.79" fill="#f2f9ee" d="M 165.5,152.5 C 163.833,152.5 162.167,152.5 160.5,152.5C 160.5,145.5 160.5,138.5 160.5,131.5C 162.167,131.5 163.833,131.5 165.5,131.5C 165.5,138.5 165.5,145.5 165.5,152.5 Z"/></g>
<g><path style="opacity:0.848" fill="#f2f9ee" d="M 213.5,152.5 C 208.5,152.5 203.5,152.5 198.5,152.5C 198.5,145.5 198.5,138.5 198.5,131.5C 203.179,131.334 207.845,131.501 212.5,132C 220.043,138.441 220.376,145.274 213.5,152.5 Z M 203.5,136.5 C 212.16,135.687 214.827,139.187 211.5,147C 208.986,148.252 206.32,148.752 203.5,148.5C 203.5,144.5 203.5,140.5 203.5,136.5 Z"/></g>
<g><path style="opacity:0.885" fill="#f2f9ee" d="M 266.5,152.5 C 261.167,152.5 255.833,152.5 250.5,152.5C 250.5,145.5 250.5,138.5 250.5,131.5C 255.833,131.5 261.167,131.5 266.5,131.5C 266.5,133.167 266.5,134.833 266.5,136.5C 262.833,136.5 259.167,136.5 255.5,136.5C 255.5,137.833 255.5,139.167 255.5,140.5C 259.167,140.5 262.833,140.5 266.5,140.5C 266.5,141.833 266.5,143.167 266.5,144.5C 262.833,144.5 259.167,144.5 255.5,144.5C 255.5,145.833 255.5,147.167 255.5,148.5C 259.167,148.5 262.833,148.5 266.5,148.5C 266.5,149.833 266.5,151.167 266.5,152.5 Z"/></g>
</svg>
